<svg xmlns="http://www.w3.org/2000/svg" width="1200" height="630" viewBox="0 0 1200 630" font-family="'Segoe UI', Helvetica, Arial, sans-serif">
<defs>
 <radialGradient id="bg" cx="50%" cy="36%" r="92%"><stop offset="0%" stop-color="#171D30"/><stop offset="58%" stop-color="#0E1220"/><stop offset="100%" stop-color="#04060C"/></radialGradient>
 <radialGradient id="halo" cx="46%" cy="40%" r="55%"><stop offset="0%" stop-color="#1f7a73" stop-opacity="0.46"/><stop offset="58%" stop-color="#13443d" stop-opacity="0.15"/><stop offset="100%" stop-color="#13443d" stop-opacity="0"/></radialGradient>
 <linearGradient id="title" x1="0" y1="0" x2="1" y2="0"><stop offset="0%" stop-color="#5EEAD4"/><stop offset="38%" stop-color="#7DD3FC"/><stop offset="70%" stop-color="#FF9E4A"/><stop offset="100%" stop-color="#FF6BD6"/></linearGradient>
 <linearGradient id="spectrum" x1="0" y1="0" x2="1" y2="0"><stop offset="0%" stop-color="#440154"/><stop offset="33%" stop-color="#3b528b"/><stop offset="60%" stop-color="#21908d"/><stop offset="80%" stop-color="#5dc863"/><stop offset="100%" stop-color="#fde725"/></linearGradient>
 <filter id="glow" x="-200%" y="-200%" width="500%" height="500%"><feGaussianBlur stdDeviation="3.2" result="b"/><feMerge><feMergeNode in="b"/><feMergeNode in="SourceGraphic"/></feMerge></filter>
 <filter id="cellbloom" x="-80%" y="-80%" width="260%" height="260%"><feGaussianBlur stdDeviation="2.6"/></filter>
 <filter id="tglow" x="-40%" y="-60%" width="180%" height="220%"><feGaussianBlur stdDeviation="11"/></filter>
</defs>
<rect width="1200" height="630" fill="url(#bg)"/>
<ellipse cx="600" cy="250" rx="470" ry="250" fill="url(#halo)"/>
<g stroke="#3a4866" stroke-width="1" fill="none">
<line x1="322.0" y1="167.0" x2="580.0" y2="154.0" opacity="0.30"/>
<line x1="562.0" y1="117.0" x2="764.0" y2="114.0" opacity="0.16"/>
<line x1="562.0" y1="357.0" x2="764.0" y2="298.0" opacity="0.16"/>
<line x1="322.0" y1="407.0" x2="580.0" y2="338.0" opacity="0.30"/>
<line x1="580.0" y1="154.0" x2="784.0" y2="146.0" opacity="0.30"/>
<line x1="764.0" y1="114.0" x2="920.0" y2="118.0" opacity="0.16"/>
<line x1="764.0" y1="298.0" x2="920.0" y2="254.0" opacity="0.16"/>
<line x1="580.0" y1="338.0" x2="784.0" y2="282.0" opacity="0.30"/>
</g>
<polygon points="784.0,146.0 920.0,118.0 920.0,254.0 784.0,282.0" fill="#0a0e1b" opacity="0.36"/>
<g><polygon points="785.2,147.1 802.3,143.6 802.3,163.5 785.2,167.1" fill="rgb(40,127,140)" opacity="0.44"/><polygon points="785.2,169.8 802.3,166.3 802.3,186.2 785.2,189.7" fill="rgb(50,105,140)" opacity="0.44"/><polygon points="785.2,192.5 802.3,188.9 802.3,208.9 785.2,212.4" fill="rgb(54,93,139)" opacity="0.44"/><polygon points="785.2,215.1 802.3,211.6 802.3,231.5 785.2,235.1" fill="rgb(53,95,139)" opacity="0.44"/><polygon points="785.2,237.8 802.3,234.3 802.3,254.2 785.2,257.7" fill="rgb(47,111,140)" opacity="0.44"/><polygon points="785.2,260.5 802.3,256.9 802.3,276.9 785.2,280.4" fill="rgb(37,136,141)" opacity="0.44"/><polygon points="804.6,143.1 821.7,139.6 821.7,159.5 804.6,163.1" fill="rgb(38,132,141)" opacity="0.44"/><polygon points="804.6,165.8 821.7,162.3 821.7,182.2 804.6,185.7" fill="rgb(38,131,141)" opacity="0.44"/><polygon points="804.6,188.5 821.7,184.9 821.7,204.9 804.6,208.4" fill="rgb(36,137,141)" opacity="0.44"/><polygon points="804.6,211.1 821.7,207.6 821.7,227.5 804.6,231.1" fill="rgb(37,148,138)" opacity="0.44"/><polygon points="804.6,233.8 821.7,230.3 821.7,250.2 804.6,253.7" fill="rgb(50,160,129)" opacity="0.44"/><polygon points="804.6,256.5 821.7,252.9 821.7,272.9 804.6,276.4" fill="rgb(59,169,123)" opacity="0.44"/><polygon points="824.0,139.1 841.1,135.6 841.1,155.5 824.0,159.1" fill="rgb(33,144,141)" opacity="0.44"/><polygon points="824.0,161.8 841.1,158.3 841.1,178.2 824.0,181.7" fill="rgb(54,164,126)" opacity="0.44"/><polygon points="824.0,184.5 841.1,180.9 841.1,200.9 824.0,204.4" fill="rgb(76,184,111)" opacity="0.44"/><polygon points="824.0,207.1 841.1,203.6 841.1,223.5 824.0,227.1" fill="rgb(91,198,100)" opacity="0.44"/><polygon points="824.0,229.8 841.1,226.3 841.1,246.2 824.0,249.7" fill="rgb(99,201,97)" opacity="0.44"/><polygon points="824.0,252.5 841.1,248.9 841.1,268.9 824.0,272.4" fill="rgb(85,192,105)" opacity="0.44"/><polygon points="843.5,135.1 860.5,131.6 860.5,151.5 843.5,155.1" fill="rgb(51,161,128)" opacity="0.44"/><polygon points="843.5,157.8 860.5,154.3 860.5,174.2 843.5,177.7" fill="rgb(90,197,101)" opacity="0.44"/><polygon points="843.5,180.5 860.5,176.9 860.5,196.9 843.5,200.4" fill="rgb(166,214,71)" opacity="0.44"/><polygon points="843.5,203.1 860.5,199.6 860.5,219.5 843.5,223.1" fill="rgb(202,221,57)" opacity="0.44"/><polygon points="843.5,225.8 860.5,222.3 860.5,242.2 843.5,245.7" fill="rgb(179,217,66)" opacity="0.44"/><polygon points="843.5,248.5 860.5,244.9 860.5,264.9 843.5,268.4" fill="rgb(99,201,97)" opacity="0.44"/><polygon points="862.9,131.1 880.0,127.6 880.0,147.5 862.9,151.1" fill="rgb(71,179,114)" opacity="0.44"/><polygon points="862.9,153.8 880.0,150.3 880.0,170.2 862.9,173.7" fill="rgb(159,213,73)" opacity="0.44"/><polygon points="862.9,176.5 880.0,172.9 880.0,192.9 862.9,196.4" fill="rgb(240,229,42)" opacity="0.44"/><polygon points="862.9,199.1 880.0,195.6 880.0,215.5 862.9,219.1" fill="rgb(253,231,37)" opacity="0.44"/><polygon points="862.9,221.8 880.0,218.3 880.0,238.2 862.9,241.7" fill="rgb(198,220,58)" opacity="0.44"/><polygon points="862.9,244.5 880.0,240.9 880.0,260.9 862.9,264.4" fill="rgb(88,196,102)" opacity="0.44"/><polygon points="882.3,127.1 899.4,123.6 899.4,143.5 882.3,147.1" fill="rgb(86,194,104)" opacity="0.44"/><polygon points="882.3,149.8 899.4,146.3 899.4,166.2 882.3,169.7" fill="rgb(189,219,62)" opacity="0.44"/><polygon points="882.3,172.5 899.4,168.9 899.4,188.9 882.3,192.4" fill="rgb(247,230,39)" opacity="0.44"/><polygon points="882.3,195.1 899.4,191.6 899.4,211.5 882.3,215.1" fill="rgb(234,227,45)" opacity="0.44"/><polygon points="882.3,217.8 899.4,214.3 899.4,234.2 882.3,237.7" fill="rgb(154,212,76)" opacity="0.44"/><polygon points="882.3,240.5 899.4,236.9 899.4,256.9 882.3,260.4" fill="rgb(68,177,116)" opacity="0.44"/><polygon points="901.7,123.1 918.8,119.6 918.8,139.5 901.7,143.1" fill="rgb(91,198,101)" opacity="0.44"/><polygon points="901.7,145.8 918.8,142.3 918.8,162.2 901.7,165.7" fill="rgb(161,213,73)" opacity="0.44"/><polygon points="901.7,168.5 918.8,164.9 918.8,184.9 901.7,188.4" fill="rgb(180,217,65)" opacity="0.44"/><polygon points="901.7,191.1 918.8,187.6 918.8,207.5 901.7,211.1" fill="rgb(143,210,80)" opacity="0.44"/><polygon points="901.7,213.8 918.8,210.3 918.8,230.2 901.7,233.7" fill="rgb(81,189,107)" opacity="0.44"/><polygon points="901.7,236.5 918.8,232.9 918.8,252.9 901.7,256.4" fill="rgb(42,153,134)" opacity="0.44"/></g>
<polygon points="784.0,146.0 920.0,118.0 920.0,254.0 784.0,282.0" fill="none" stroke="#73e6da" stroke-width="1.0" opacity="0.22"/>
<polygon points="580.0,154.0 764.0,114.0 764.0,298.0 580.0,338.0" fill="#0a0e1b" opacity="0.49"/>
<g><polygon points="581.4,155.3 601.6,150.9 601.6,174.0 581.4,178.4" fill="rgb(106,202,94)" opacity="0.62"/><polygon points="581.4,181.6 601.6,177.2 601.6,200.3 581.4,204.7" fill="rgb(55,164,126)" opacity="0.62"/><polygon points="581.4,207.8 601.6,203.4 601.6,226.6 581.4,231.0" fill="rgb(45,116,140)" opacity="0.62"/><polygon points="581.4,234.1 601.6,229.7 601.6,252.9 581.4,257.3" fill="rgb(61,66,128)" opacity="0.62"/><polygon points="581.4,260.4 601.6,256.0 601.6,279.2 581.4,283.6" fill="rgb(66,19,96)" opacity="0.62"/><polygon points="581.4,286.7 601.6,282.3 601.6,305.4 581.4,309.8" fill="rgb(68,1,84)" opacity="0.62"/><polygon points="581.4,313.0 601.6,308.6 601.6,331.7 581.4,336.1" fill="rgb(68,1,84)" opacity="0.62"/><polygon points="604.4,150.3 624.6,145.9 624.6,169.0 604.4,173.4" fill="rgb(85,193,104)" opacity="0.62"/><polygon points="604.4,176.6 624.6,172.2 624.6,195.3 604.4,199.7" fill="rgb(40,150,136)" opacity="0.62"/><polygon points="604.4,202.8 624.6,198.4 624.6,221.6 604.4,226.0" fill="rgb(50,102,140)" opacity="0.62"/><polygon points="604.4,229.1 624.6,224.7 624.6,247.9 604.4,252.3" fill="rgb(62,54,120)" opacity="0.62"/><polygon points="604.4,255.4 624.6,251.0 624.6,274.2 604.4,278.6" fill="rgb(66,19,96)" opacity="0.62"/><polygon points="604.4,281.7 624.6,277.3 624.6,300.4 604.4,304.8" fill="rgb(67,8,89)" opacity="0.62"/><polygon points="604.4,308.0 624.6,303.6 624.6,326.7 604.4,331.1" fill="rgb(66,22,98)" opacity="0.62"/><polygon points="627.4,145.3 647.6,140.9 647.6,164.0 627.4,168.4" fill="rgb(62,172,120)" opacity="0.62"/><polygon points="627.4,171.6 647.6,167.2 647.6,190.3 627.4,194.7" fill="rgb(37,134,141)" opacity="0.62"/><polygon points="627.4,197.8 647.6,193.4 647.6,216.6 627.4,221.0" fill="rgb(53,96,139)" opacity="0.62"/><polygon points="627.4,224.1 647.6,219.7 647.6,242.9 627.4,247.3" fill="rgb(61,64,126)" opacity="0.62"/><polygon points="627.4,250.4 647.6,246.0 647.6,269.2 627.4,273.6" fill="rgb(63,45,114)" opacity="0.62"/><polygon points="627.4,276.7 647.6,272.3 647.6,295.4 627.4,299.8" fill="rgb(63,47,115)" opacity="0.62"/><polygon points="627.4,303.0 647.6,298.6 647.6,321.7 627.4,326.1" fill="rgb(61,67,129)" opacity="0.62"/><polygon points="650.4,140.3 670.6,135.9 670.6,159.0 650.4,163.4" fill="rgb(35,146,139)" opacity="0.62"/><polygon points="650.4,166.6 670.6,162.2 670.6,185.3 650.4,189.7" fill="rgb(43,120,140)" opacity="0.62"/><polygon points="650.4,192.8 670.6,188.4 670.6,211.6 650.4,216.0" fill="rgb(51,101,140)" opacity="0.62"/><polygon points="650.4,219.1 670.6,214.7 670.6,237.9 650.4,242.3" fill="rgb(55,90,139)" opacity="0.62"/><polygon points="650.4,245.4 670.6,241.0 670.6,264.2 650.4,268.6" fill="rgb(55,91,139)" opacity="0.62"/><polygon points="650.4,271.7 670.6,267.3 670.6,290.4 650.4,294.8" fill="rgb(51,100,140)" opacity="0.62"/><polygon points="650.4,298.0 670.6,293.6 670.6,316.7 650.4,321.1" fill="rgb(45,116,140)" opacity="0.62"/><polygon points="673.4,135.3 693.6,130.9 693.6,154.0 673.4,158.4" fill="rgb(43,120,140)" opacity="0.62"/><polygon points="673.4,161.6 693.6,157.2 693.6,180.3 673.4,184.7" fill="rgb(45,114,140)" opacity="0.62"/><polygon points="673.4,187.8 693.6,183.4 693.6,206.6 673.4,211.0" fill="rgb(45,116,140)" opacity="0.62"/><polygon points="673.4,214.1 693.6,209.7 693.6,232.9 673.4,237.3" fill="rgb(41,125,140)" opacity="0.62"/><polygon points="673.4,240.4 693.6,236.0 693.6,259.2 673.4,263.6" fill="rgb(35,138,141)" opacity="0.62"/><polygon points="673.4,266.7 693.6,262.3 693.6,285.4 673.4,289.8" fill="rgb(41,152,135)" opacity="0.62"/><polygon points="673.4,293.0 693.6,288.6 693.6,311.7 673.4,316.1" fill="rgb(52,162,128)" opacity="0.62"/><polygon points="696.4,130.3 716.6,125.9 716.6,149.0 696.4,153.4" fill="rgb(51,102,140)" opacity="0.62"/><polygon points="696.4,156.6 716.6,152.2 716.6,175.3 696.4,179.7" fill="rgb(44,118,140)" opacity="0.62"/><polygon points="696.4,182.8 716.6,178.4 716.6,201.6 696.4,206.0" fill="rgb(35,140,141)" opacity="0.62"/><polygon points="696.4,209.1 716.6,204.7 716.6,227.9 696.4,232.3" fill="rgb(53,163,127)" opacity="0.62"/><polygon points="696.4,235.4 716.6,231.0 716.6,254.2 696.4,258.6" fill="rgb(74,182,112)" opacity="0.62"/><polygon points="696.4,261.7 716.6,257.3 716.6,280.4 696.4,284.8" fill="rgb(88,195,103)" opacity="0.62"/><polygon points="696.4,288.0 716.6,283.6 716.6,306.7 696.4,311.1" fill="rgb(91,198,100)" opacity="0.62"/><polygon points="719.4,125.3 739.6,120.9 739.6,144.0 719.4,148.4" fill="rgb(54,94,139)" opacity="0.62"/><polygon points="719.4,151.6 739.6,147.2 739.6,170.3 719.4,174.7" fill="rgb(39,129,141)" opacity="0.62"/><polygon points="719.4,177.8 739.6,173.4 739.6,196.6 719.4,201.0" fill="rgb(55,165,126)" opacity="0.62"/><polygon points="719.4,204.1 739.6,199.7 739.6,222.9 719.4,227.3" fill="rgb(89,196,102)" opacity="0.62"/><polygon points="719.4,230.4 739.6,226.0 739.6,249.2 719.4,253.6" fill="rgb(146,210,79)" opacity="0.62"/><polygon points="719.4,256.7 739.6,252.3 739.6,275.4 719.4,279.8" fill="rgb(173,215,68)" opacity="0.62"/><polygon points="719.4,283.0 739.6,278.6 739.6,301.7 719.4,306.1" fill="rgb(158,213,74)" opacity="0.62"/><polygon points="742.4,120.3 762.6,115.9 762.6,139.0 742.4,143.4" fill="rgb(52,98,140)" opacity="0.62"/><polygon points="742.4,146.6 762.6,142.2 762.6,165.3 742.4,169.7" fill="rgb(33,144,141)" opacity="0.62"/><polygon points="742.4,172.8 762.6,168.4 762.6,191.6 742.4,196.0" fill="rgb(78,186,110)" opacity="0.62"/><polygon points="742.4,199.1 762.6,194.7 762.6,217.9 742.4,222.3" fill="rgb(149,211,77)" opacity="0.62"/><polygon points="742.4,225.4 762.6,221.0 762.6,244.2 742.4,248.6" fill="rgb(208,222,55)" opacity="0.62"/><polygon points="742.4,251.7 762.6,247.3 762.6,270.4 742.4,274.8" fill="rgb(220,225,50)" opacity="0.62"/><polygon points="742.4,278.0 762.6,273.6 762.6,296.7 742.4,301.1" fill="rgb(185,218,63)" opacity="0.62"/></g>
<polygon points="580.0,154.0 764.0,114.0 764.0,298.0 580.0,338.0" fill="none" stroke="#73e6da" stroke-width="1.0" opacity="0.34"/>
<polygon points="322.0,167.0 562.0,117.0 562.0,357.0 322.0,407.0" fill="#0a0e1b" opacity="0.72"/>
<g filter="url(#cellbloom)"><circle cx="388.7" cy="168.1" r="7" fill="rgb(196,220,59)" opacity="0.5"/><circle cx="388.7" cy="198.1" r="7" fill="rgb(172,215,68)" opacity="0.5"/><circle cx="415.3" cy="162.6" r="7" fill="rgb(236,228,44)" opacity="0.5"/><circle cx="415.3" cy="192.6" r="7" fill="rgb(191,219,61)" opacity="0.5"/><circle cx="442.0" cy="157.0" r="7" fill="rgb(232,227,45)" opacity="0.5"/><circle cx="442.0" cy="187.0" r="7" fill="rgb(175,216,67)" opacity="0.5"/><circle cx="468.7" cy="151.4" r="7" fill="rgb(190,219,62)" opacity="0.5"/><circle cx="468.7" cy="181.4" r="7" fill="rgb(130,207,85)" opacity="0.5"/></g>
<g><polygon points="323.6,168.5 347.1,163.6 347.1,190.0 323.6,194.9" fill="rgb(62,171,121)" opacity="0.92"/><polygon points="323.6,198.5 347.1,193.6 347.1,220.0 323.6,224.9" fill="rgb(70,179,115)" opacity="0.92"/><polygon points="323.6,228.5 347.1,223.6 347.1,250.0 323.6,254.9" fill="rgb(72,181,114)" opacity="0.92"/><polygon points="323.6,258.5 347.1,253.6 347.1,280.0 323.6,284.9" fill="rgb(68,176,117)" opacity="0.92"/><polygon points="323.6,288.5 347.1,283.6 347.1,310.0 323.6,314.9" fill="rgb(57,166,124)" opacity="0.92"/><polygon points="323.6,318.5 347.1,313.6 347.1,340.0 323.6,344.9" fill="rgb(41,152,135)" opacity="0.92"/><polygon points="323.6,348.5 347.1,343.6 347.1,370.0 323.6,374.9" fill="rgb(37,135,141)" opacity="0.92"/><polygon points="323.6,378.5 347.1,373.6 347.1,400.0 323.6,404.9" fill="rgb(44,118,140)" opacity="0.92"/><polygon points="350.3,162.9 373.7,158.0 373.7,184.4 350.3,189.3" fill="rgb(118,205,89)" opacity="0.92"/><polygon points="350.3,192.9 373.7,188.0 373.7,214.4 350.3,219.3" fill="rgb(117,205,90)" opacity="0.92"/><polygon points="350.3,222.9 373.7,218.0 373.7,244.4 350.3,249.3" fill="rgb(92,199,100)" opacity="0.92"/><polygon points="350.3,252.9 373.7,248.0 373.7,274.4 350.3,279.3" fill="rgb(73,182,113)" opacity="0.92"/><polygon points="350.3,282.9 373.7,278.0 373.7,304.4 350.3,309.3" fill="rgb(48,158,130)" opacity="0.92"/><polygon points="350.3,312.9 373.7,308.0 373.7,334.4 350.3,339.3" fill="rgb(38,131,141)" opacity="0.92"/><polygon points="350.3,342.9 373.7,338.0 373.7,364.4 350.3,369.3" fill="rgb(50,104,140)" opacity="0.92"/><polygon points="350.3,372.9 373.7,368.0 373.7,394.4 350.3,399.3" fill="rgb(59,83,139)" opacity="0.92"/><polygon points="376.9,157.4 400.4,152.5 400.4,178.9 376.9,183.8" fill="rgb(196,220,59)" opacity="0.92"/><polygon points="376.9,187.4 400.4,182.5 400.4,208.9 376.9,213.8" fill="rgb(172,215,68)" opacity="0.92"/><polygon points="376.9,217.4 400.4,212.5 400.4,238.9 376.9,243.8" fill="rgb(117,205,90)" opacity="0.92"/><polygon points="376.9,247.4 400.4,242.5 400.4,268.9 376.9,273.8" fill="rgb(72,180,114)" opacity="0.92"/><polygon points="376.9,277.4 400.4,272.5 400.4,298.9 376.9,303.8" fill="rgb(37,148,138)" opacity="0.92"/><polygon points="376.9,307.4 400.4,302.5 400.4,328.9 376.9,333.8" fill="rgb(46,112,140)" opacity="0.92"/><polygon points="376.9,337.4 400.4,332.5 400.4,358.9 376.9,363.8" fill="rgb(59,80,138)" opacity="0.92"/><polygon points="376.9,367.4 400.4,362.5 400.4,388.9 376.9,393.8" fill="rgb(62,51,118)" opacity="0.92"/><polygon points="403.6,151.8 427.1,146.9 427.1,173.3 403.6,178.2" fill="rgb(236,228,44)" opacity="0.92"/><polygon points="403.6,181.8 427.1,176.9 427.1,203.3 403.6,208.2" fill="rgb(191,219,61)" opacity="0.92"/><polygon points="403.6,211.8 427.1,206.9 427.1,233.3 403.6,238.2" fill="rgb(115,204,90)" opacity="0.92"/><polygon points="403.6,241.8 427.1,236.9 427.1,263.3 403.6,268.2" fill="rgb(65,174,119)" opacity="0.92"/><polygon points="403.6,271.8 427.1,266.9 427.1,293.3 403.6,298.2" fill="rgb(36,136,141)" opacity="0.92"/><polygon points="403.6,301.8 427.1,296.9 427.1,323.3 403.6,328.2" fill="rgb(52,98,140)" opacity="0.92"/><polygon points="403.6,331.8 427.1,326.9 427.1,353.3 403.6,358.2" fill="rgb(61,63,126)" opacity="0.92"/><polygon points="403.6,361.8 427.1,356.9 427.1,383.3 403.6,388.2" fill="rgb(64,37,108)" opacity="0.92"/><polygon points="430.3,146.2 453.7,141.4 453.7,167.8 430.3,172.6" fill="rgb(232,227,45)" opacity="0.92"/><polygon points="430.3,176.2 453.7,171.4 453.7,197.8 430.3,202.6" fill="rgb(175,216,67)" opacity="0.92"/><polygon points="430.3,206.2 453.7,201.4 453.7,227.8 430.3,232.6" fill="rgb(92,199,100)" opacity="0.92"/><polygon points="430.3,236.2 453.7,231.4 453.7,257.8 430.3,262.6" fill="rgb(55,165,126)" opacity="0.92"/><polygon points="430.3,266.2 453.7,261.4 453.7,287.8 430.3,292.6" fill="rgb(40,128,140)" opacity="0.92"/><polygon points="430.3,296.2 453.7,291.4 453.7,317.8 430.3,322.6" fill="rgb(54,93,139)" opacity="0.92"/><polygon points="430.3,326.2 453.7,321.4 453.7,347.8 430.3,352.6" fill="rgb(61,62,125)" opacity="0.92"/><polygon points="430.3,356.2 453.7,351.4 453.7,377.8 430.3,382.6" fill="rgb(64,41,111)" opacity="0.92"/><polygon points="456.9,140.7 480.4,135.8 480.4,162.2 456.9,167.1" fill="rgb(190,219,62)" opacity="0.92"/><polygon points="456.9,170.7 480.4,165.8 480.4,192.2 456.9,197.1" fill="rgb(130,207,85)" opacity="0.92"/><polygon points="456.9,200.7 480.4,195.8 480.4,222.2 456.9,227.1" fill="rgb(77,186,110)" opacity="0.92"/><polygon points="456.9,230.7 480.4,225.8 480.4,252.2 456.9,257.1" fill="rgb(45,155,132)" opacity="0.92"/><polygon points="456.9,260.7 480.4,255.8 480.4,282.2 456.9,287.1" fill="rgb(41,125,140)" opacity="0.92"/><polygon points="456.9,290.7 480.4,285.8 480.4,312.2 456.9,317.1" fill="rgb(53,97,139)" opacity="0.92"/><polygon points="456.9,320.7 480.4,315.8 480.4,342.2 456.9,347.1" fill="rgb(60,76,135)" opacity="0.92"/><polygon points="456.9,350.7 480.4,345.8 480.4,372.2 456.9,377.1" fill="rgb(61,61,125)" opacity="0.92"/><polygon points="483.6,135.1 507.1,130.2 507.1,156.6 483.6,161.5" fill="rgb(117,205,90)" opacity="0.92"/><polygon points="483.6,165.1 507.1,160.2 507.1,186.6 483.6,191.5" fill="rgb(83,191,106)" opacity="0.92"/><polygon points="483.6,195.1 507.1,190.2 507.1,216.6 483.6,221.5" fill="rgb(60,170,122)" opacity="0.92"/><polygon points="483.6,225.1 507.1,220.2 507.1,246.6 483.6,251.5" fill="rgb(38,148,138)" opacity="0.92"/><polygon points="483.6,255.1 507.1,250.2 507.1,276.6 483.6,281.5" fill="rgb(40,128,140)" opacity="0.92"/><polygon points="483.6,285.1 507.1,280.2 507.1,306.6 483.6,311.5" fill="rgb(47,111,140)" opacity="0.92"/><polygon points="483.6,315.1 507.1,310.2 507.1,336.6 483.6,341.5" fill="rgb(52,98,140)" opacity="0.92"/><polygon points="483.6,345.1 507.1,340.2 507.1,366.6 483.6,371.5" fill="rgb(55,91,139)" opacity="0.92"/><polygon points="510.3,129.6 533.7,124.7 533.7,151.1 510.3,156.0" fill="rgb(68,177,116)" opacity="0.92"/><polygon points="510.3,159.6 533.7,154.7 533.7,181.1 510.3,186.0" fill="rgb(56,166,125)" opacity="0.92"/><polygon points="510.3,189.6 533.7,184.7 533.7,211.1 510.3,216.0" fill="rgb(44,154,133)" opacity="0.92"/><polygon points="510.3,219.6 533.7,214.7 533.7,241.1 510.3,246.0" fill="rgb(34,145,141)" opacity="0.92"/><polygon points="510.3,249.6 533.7,244.7 533.7,271.1 510.3,276.0" fill="rgb(36,136,141)" opacity="0.92"/><polygon points="510.3,279.6 533.7,274.7 533.7,301.1 510.3,306.0" fill="rgb(39,130,141)" opacity="0.92"/><polygon points="510.3,309.6 533.7,304.7 533.7,331.1 510.3,336.0" fill="rgb(41,125,140)" opacity="0.92"/><polygon points="510.3,339.6 533.7,334.7 533.7,361.1 510.3,366.0" fill="rgb(43,121,140)" opacity="0.92"/><polygon points="536.9,124.0 560.4,119.1 560.4,145.5 536.9,150.4" fill="rgb(34,145,140)" opacity="0.92"/><polygon points="536.9,154.0 560.4,149.1 560.4,175.5 536.9,180.4" fill="rgb(34,142,141)" opacity="0.92"/><polygon points="536.9,184.0 560.4,179.1 560.4,205.5 536.9,210.4" fill="rgb(34,141,141)" opacity="0.92"/><polygon points="536.9,214.0 560.4,209.1 560.4,235.5 536.9,240.4" fill="rgb(33,143,141)" opacity="0.92"/><polygon points="536.9,244.0 560.4,239.1 560.4,265.5 536.9,270.4" fill="rgb(36,147,139)" opacity="0.92"/><polygon points="536.9,274.0 560.4,269.1 560.4,295.5 536.9,300.4" fill="rgb(39,150,137)" opacity="0.92"/><polygon points="536.9,304.0 560.4,299.1 560.4,325.5 536.9,330.4" fill="rgb(40,151,136)" opacity="0.92"/><polygon points="536.9,334.0 560.4,329.1 560.4,355.5 536.9,360.4" fill="rgb(39,149,137)" opacity="0.92"/></g>
<polygon points="322.0,167.0 562.0,117.0 562.0,357.0 322.0,407.0" fill="none" stroke="#73e6da" stroke-width="1.5" opacity="0.55"/>
<g opacity="0.6">
<line x1="310.0" y1="258.4" x2="341.7" y2="257.0" stroke="#bfefff" stroke-width="2" stroke-linecap="round" opacity="0.5"/>
<line x1="368.1" y1="272.6" x2="415.6" y2="270.4" stroke="#FF6BD6" stroke-width="2" stroke-linecap="round" opacity="0.5"/>
<line x1="442.0" y1="256.6" x2="524.8" y2="243.6" stroke="#A8F0FF" stroke-width="2" stroke-linecap="round" opacity="0.5"/>
<line x1="589.2" y1="247.4" x2="672.0" y2="234.4" stroke="#FF9E4A" stroke-width="2" stroke-linecap="round" opacity="0.5"/>
<line x1="722.4" y1="212.7" x2="787.2" y2="203.4" stroke="#bfefff" stroke-width="2" stroke-linecap="round" opacity="0.5"/>
<line x1="837.6" y1="207.5" x2="878.9" y2="201.5" stroke="#7DD3FC" stroke-width="2" stroke-linecap="round" opacity="0.5"/>
</g>
<line x1="341.7" y1="257.0" x2="524.8" y2="243.6" stroke="#7DD3FC" stroke-width="1" opacity="0.4"/>
<line x1="524.8" y1="243.6" x2="787.2" y2="203.4" stroke="#FF6BD6" stroke-width="1" opacity="0.4"/>
<line x1="672.0" y1="234.4" x2="878.9" y2="201.5" stroke="#FF9E4A" stroke-width="1" opacity="0.4"/>
<g filter="url(#glow)">
<circle cx="341.7" cy="257.0" r="3.1" fill="#bfefff"/>
<circle cx="415.6" cy="270.4" r="3.1" fill="#FF6BD6"/>
<circle cx="524.8" cy="243.6" r="3.1" fill="#A8F0FF"/>
<circle cx="672.0" cy="234.4" r="3.1" fill="#FF9E4A"/>
<circle cx="787.2" cy="203.4" r="3.1" fill="#bfefff"/>
<circle cx="878.9" cy="201.5" r="3.1" fill="#7DD3FC"/>
</g>
<g transform="translate(600 478)" text-anchor="middle">
<text x="0" y="0" font-size="96" font-weight="700" letter-spacing="-1" fill="url(#title)" filter="url(#tglow)" opacity="0.6">LLM Atlas</text>
<text x="0" y="0" font-size="96" font-weight="700" letter-spacing="-1" fill="url(#title)">LLM Atlas</text>
<rect x="-170" y="26" width="340" height="6" rx="3" fill="url(#spectrum)" opacity="0.92"/>
<text x="0" y="70" font-size="23" font-weight="500" letter-spacing="1" fill="#9AA3BC" font-family="'JetBrains Mono', Consolas, monospace">a transformer, made visible</text>
<text x="0" y="104" font-size="16" letter-spacing="2" fill="#6B7388" font-family="'JetBrains Mono', Consolas, monospace">tokens · attention · quantization · sampling · by engineering87</text>
</g></svg>